<svg preserveAspectRatio="none" width="100%" height="100%" overflow="visible" style="display: block;" viewBox="0 0 16.1103 16.1254" fill="none" xmlns="http://www.w3.org/2000/svg">
<path id="Vector" d="M0.9201 11.9984C1.2481 11.8914 1.6701 11.8884 2.0221 11.9904C2.2 12.0434 2.356 12.1224 2.4861 12.2284C2.618 12.3344 2.7221 12.4694 2.796 12.6274C2.869 12.7844 2.9061 12.9664 2.9061 13.1664C2.9061 13.2664 2.891 13.3654 2.8601 13.4624C2.83 13.5584 2.784 13.6504 2.7251 13.7354C2.6701 13.8134 2.6041 13.8864 2.527 13.9514C2.627 14.0224 2.711 14.1064 2.777 14.2014C2.902 14.3834 2.9651 14.5984 2.9651 14.8414C2.9651 15.0434 2.924 15.2284 2.844 15.3904C2.7651 15.5514 2.6541 15.6894 2.514 15.7994C2.3801 15.9054 2.218 15.9884 2.034 16.0444C1.855 16.0984 1.6611 16.1254 1.4561 16.1254C1.28 16.1254 1.106 16.1024 0.9381 16.0544C0.765 16.0064 0.608 15.9294 0.4711 15.8264C0.33 15.7224 0.2161 15.5884 0.1311 15.4314C0.0441002 15.2704 0 15.0794 0 14.8634V14.6764H1.115V14.8634C1.115 14.9054 1.1231 14.9444 1.138 14.9774C1.1541 15.0114 1.1761 15.0394 1.205 15.0644C1.2361 15.0914 1.2751 15.1134 1.3191 15.1284C1.4111 15.1614 1.5501 15.1614 1.648 15.1274C1.693 15.1124 1.7291 15.0914 1.759 15.0644C1.7891 15.0364 1.81 15.0054 1.825 14.9684C1.8411 14.9294 1.8501 14.8834 1.8501 14.8304C1.8501 14.7554 1.8401 14.6934 1.82 14.6454C1.803 14.6024 1.7821 14.5714 1.752 14.5464C1.7201 14.5194 1.679 14.4984 1.629 14.4854C1.5691 14.4674 1.501 14.4594 1.4251 14.4594H0.843V13.5054H1.4251C1.559 13.5054 1.6541 13.4774 1.7081 13.4214C1.764 13.3634 1.7911 13.2834 1.7911 13.1774C1.7911 13.1294 1.784 13.0874 1.77 13.0484C1.759 13.0154 1.744 12.9894 1.7221 12.9684C1.698 12.9454 1.667 12.9254 1.6301 12.9114C1.5621 12.8864 1.4371 12.8754 1.337 12.9084C1.2981 12.9214 1.2651 12.9384 1.238 12.9594C1.2131 12.9794 1.195 13.0014 1.181 13.0304C1.167 13.0564 1.1611 13.0854 1.1611 13.1204V13.3084H0.046V13.1204C0.046 12.9384 0.0851002 12.7684 0.1631 12.6164C0.238 12.4684 0.343 12.3394 0.474 12.2354C0.601 12.1334 0.751 12.0534 0.9201 11.9984ZM15.3603 13.5065C15.7753 13.5065 16.1103 13.8415 16.1103 14.2565C16.1103 14.6705 15.7753 15.0065 15.3603 15.0065H5.8604C5.4463 15.0065 5.1104 14.6705 5.1104 14.2565C5.1104 13.8415 5.4463 13.5065 5.8604 13.5065H15.3603ZM0.8892 5.9106C1.2222 5.7746 1.7112 5.7636 2.0782 5.8816C2.2531 5.9386 2.4041 6.0216 2.5251 6.1286C2.6492 6.2376 2.7442 6.3736 2.8081 6.5316C2.8692 6.6856 2.9012 6.8576 2.9012 7.0456C2.9012 7.1906 2.8781 7.3316 2.8321 7.4666C2.7882 7.5966 2.7261 7.7266 2.6471 7.8546C2.5712 7.9786 2.4772 8.1056 2.3701 8.2306C2.2681 8.3486 2.1522 8.4766 2.0231 8.6086L1.6661 8.9846H3.0212V9.9576H0.0890999V9.1886L1.3472 7.8476C1.4322 7.7546 1.5052 7.6686 1.5642 7.5906C1.6192 7.5176 1.6661 7.4476 1.7012 7.3866C1.7312 7.3316 1.7531 7.2806 1.7651 7.2366C1.7772 7.1956 1.7832 7.1556 1.7832 7.1166C1.7832 6.9976 1.7572 6.9096 1.7042 6.8506C1.6571 6.7976 1.5862 6.7716 1.4862 6.7716C1.4272 6.7716 1.3771 6.7806 1.3332 6.8016C1.2911 6.8206 1.2582 6.8476 1.2301 6.8806C1.2001 6.9176 1.1772 6.9626 1.1612 7.0166C1.1422 7.0746 1.1332 7.1416 1.1332 7.2116V7.3986H0.0151V7.2116C0.0151 7.0216 0.0502003 6.8376 0.1182 6.6676C0.1881 6.4946 0.2892 6.3426 0.4191 6.2146C0.5502 6.0866 0.7071 5.9836 0.8892 5.9106ZM15.3603 7.3131C15.7753 7.3131 16.1103 7.6481 16.1103 8.0631C16.1103 8.4771 15.7753 8.8131 15.3603 8.8131H5.8604C5.4463 8.8131 5.1104 8.4771 5.1104 8.0631C5.1104 7.6481 5.4463 7.3131 5.8604 7.3131H15.3603ZM2.2632 0V4.112H1.1473V1.323L0.2632 1.597V0.608L1.9963 0H2.2632ZM15.3603 1.1188C15.7753 1.1188 16.1103 1.4548 16.1103 1.8688C16.1103 2.2828 15.7753 2.6188 15.3603 2.6188H5.8604C5.4463 2.6188 5.1104 2.2828 5.1104 1.8688C5.1104 1.4548 5.4463 1.1188 5.8604 1.1188H15.3603Z" fill="var(--fill-0, #848487)"/>
</svg>
