<svg preserveAspectRatio="none" width="100%" height="100%" overflow="visible" style="display: block;" viewBox="0 0 14.5015 14.4987" fill="none" xmlns="http://www.w3.org/2000/svg">
<path id="Vector" d="M8.31075 7.24875L14.2818 1.27975C14.5748 0.98675 14.5748 0.51275 14.2818 0.21975C13.9888 -0.07325 13.5127 -0.07325 13.2207 0.21975L7.24975 6.18775L1.28075 0.21975C0.98775 -0.07325 0.51275 -0.07325 0.21975 0.21975C-0.07325 0.51275 -0.07325 0.98675 0.21975 1.27975L6.18975 7.24875L0.21975 13.2198C-0.07325 13.5128 -0.07325 13.9867 0.21975 14.2797C0.36675 14.4267 0.55775 14.4987 0.74975 14.4987C0.94275 14.4987 1.13375 14.4267 1.28075 14.2797L7.24975 8.31075L13.2207 14.2797C13.3667 14.4267 13.5588 14.4987 13.7508 14.4987C13.9428 14.4987 14.1348 14.4267 14.2818 14.2797C14.5748 13.9867 14.5748 13.5128 14.2818 13.2198L8.31075 7.24875Z" fill="var(--fill-0, #848487)"/>
</svg>
