<svg preserveAspectRatio="none" width="100%" height="100%" overflow="visible" style="display: block;" viewBox="0 0 19.5625 19.5627" fill="none" xmlns="http://www.w3.org/2000/svg">
<path id="Vector" d="M9.43725 0.783263L9.78125 0.781263C12.5473 0.781263 15.0223 1.08526 16.6733 2.58026C17.9883 3.77226 18.7812 5.72026 18.7812 8.87526C18.7812 12.0313 17.9883 13.9793 16.6723 15.1713C15.0213 16.6663 12.5473 16.9703 9.78125 16.9703C8.93825 16.9703 8.12225 16.9423 7.34825 16.8603C6.24325 17.9083 5.10925 18.5423 3.94725 18.7603C3.57925 18.8293 3.39425 18.7313 3.60625 18.4463L3.74925 18.2433C3.92625 17.9773 4.12425 17.6073 4.20625 17.1213C4.27925 16.6923 4.24425 16.3163 4.10225 15.9963C3.66025 15.7743 3.25525 15.5023 2.89025 15.1713C1.57425 13.9793 0.78125 12.0313 0.78125 8.87526C0.78125 5.72026 1.57425 3.77126 2.88925 2.58026C4.47125 1.14726 6.81025 0.808263 9.43725 0.783263Z" stroke="var(--stroke-0, white)" stroke-width="1.5625"/>
</svg>
