<svg preserveAspectRatio="none" width="100%" height="100%" overflow="visible" style="display: block;" viewBox="0 0 15.065 18.25" fill="none" xmlns="http://www.w3.org/2000/svg">
<path id="Vector" fill-rule="evenodd" clip-rule="evenodd" d="M15.065 7.43695C15.072 6.53495 14.249 5.90795 13.444 5.89895H9.374C9.374 5.89895 9.456 5.33295 9.615 4.18095C9.993 1.45095 8.838 -0.062049 7.541 0.00195102C7.386 0.00995102 7.091 0.0559509 6.966 0.237951C6.749 0.553951 6.747 3.04495 6.747 3.04495C6.747 3.04495 6.098 5.43195 3.573 6.87995C2.973 7.22395 1.696 7.47395 1.282 7.65295C0.502 7.99095 0 8.76095 0 9.61195V13.439C0 16.097 2.154 18.25 4.811 18.25H9.542C12.186 18.25 13.261 17.886 13.83 17.187C14.507 16.351 13.853 15.171 13.049 15.165H13.316C14.121 15.171 14.613 14.618 14.62 13.717C14.627 12.816 14.146 12.261 13.342 12.254H13.293C14.097 12.261 14.88 11.566 14.887 10.666C14.894 9.76395 14.39 9.08395 13.586 9.07595H13.584C14.529 9.07595 15.058 8.33795 15.065 7.43695Z" fill="var(--fill-0, #848487)"/>
</svg>
