<svg preserveAspectRatio="none" width="100%" height="100%" overflow="visible" style="display: block;" viewBox="0 0 16.7033 16.6953" fill="none" xmlns="http://www.w3.org/2000/svg">
<path id="Vector" d="M11.3263 3.272C12.5 3.272 13.424 4.19533 13.424 5.36967V14.5987C13.424 15.7733 12.5003 16.6953 11.3263 16.6953H2.09733C0.923333 16.6953 0 15.7733 0 14.5987V5.36967C0 4.19533 0.923333 3.272 2.09733 3.272H11.3263ZM10.3193 9.31267C10.1513 9.146 9.73233 8.894 9.31233 9.31267L6.37533 12.1667C6.208 12.3347 5.956 12.3347 5.78833 12.1667L4.69767 11.1593C4.44567 10.908 4.11033 10.824 3.69067 11.1593L1.25733 13.257V14.5993C1.25733 15.0187 1.677 15.4387 2.09667 15.4387H11.326C11.746 15.4387 12.165 15.0187 12.165 14.5993V11.1583L10.3193 9.31267ZM14.6057 0C15.7287 0 16.6223 0.844334 16.697 1.94567L16.7033 2.09767V11.3263C16.7033 12.254 16.127 13.026 15.305 13.3087C15.3817 13.087 15.424 12.8477 15.424 12.5987V3.36967C15.424 2.19533 14.5003 1.272 13.3263 1.272H4.09733C3.85067 1.272 3.61533 1.313 3.397 1.38867C3.665 0.623667 4.35733 0.0723335 5.20567 0.00666682L5.377 0H14.6057ZM4.027 6.293C3.356 6.293 2.769 6.88033 2.769 7.55133C2.769 8.22233 3.35633 8.80967 4.027 8.80967C4.69867 8.80967 5.28567 8.22233 5.28567 7.55133C5.28567 6.88033 4.78267 6.293 4.027 6.293Z" fill="var(--fill-0, #848487)"/>
</svg>
