<svg preserveAspectRatio="none" width="100%" height="100%" overflow="visible" style="display: block;" viewBox="0 0 17.4271 17.7757" fill="none" xmlns="http://www.w3.org/2000/svg">
<path id="Vector" fill-rule="evenodd" clip-rule="evenodd" d="M15.9321 1.48575C13.9441 -0.49525 10.7071 -0.49525 8.71913 1.48575L0.221126 9.95375C-0.0728735 10.2457 -0.0738736 10.7208 0.219126 11.0138C0.511126 11.3078 0.986126 11.3077 1.28013 11.0157L9.77813 2.54775C11.1821 1.14775 13.4681 1.14775 14.8721 2.54775C15.5521 3.22575 15.9271 4.12675 15.9271 5.08475C15.9271 6.04275 15.5521 6.94375 14.8731 7.62175L6.63513 15.8288C6.03713 16.4258 5.06413 16.4248 4.46513 15.8288C4.17613 15.5398 4.01613 15.1568 4.01613 14.7498C4.01613 14.3418 4.17513 13.9587 4.46413 13.6707L11.9941 6.16975C12.2861 5.87675 12.2871 5.40175 11.9951 5.10875C11.7031 4.81475 11.2281 4.81375 10.9351 5.10675L3.40613 12.6077C2.83213 13.1797 2.51613 13.9408 2.51613 14.7498C2.51713 15.5578 2.83213 16.3187 3.40613 16.8897C3.99713 17.4807 4.77413 17.7757 5.55113 17.7757C6.32813 17.7757 7.10413 17.4807 7.69513 16.8897L15.9321 8.68275C16.8961 7.72175 17.4271 6.44375 17.4271 5.08475C17.4271 3.72475 16.8961 2.44675 15.9321 1.48575Z" fill="var(--fill-0, #848487)"/>
</svg>
