<svg preserveAspectRatio="none" width="100%" height="100%" overflow="visible" style="display: block;" viewBox="0 0 17.5 17.5" fill="none" xmlns="http://www.w3.org/2000/svg">
<path id="Vector" fill-rule="evenodd" clip-rule="evenodd" d="M14.25 0C16.042 0 17.5 1.458 17.5 3.25V14.25C17.5 16.041 16.042 17.5 14.25 17.5H3.25C1.458 17.5 0 16.041 0 14.25V3.25C0 1.458 1.458 0 3.25 0H14.25ZM16 12.166H12.167V16H14.25C15.215 16 16 15.214 16 14.25V12.166ZM10.667 12.167H6.834V16H10.667V12.167ZM5.333 12.166H1.5V14.25C1.5 15.214 2.285 16 3.25 16H5.333V12.166ZM16 6.833H12.167V10.666H16V6.833ZM10.667 6.833H6.834V10.666H10.667V6.833ZM5.333 6.833H1.5V10.666H5.333V6.833ZM14.25 1.5H12.167V5.333H16V3.25C16 2.285 15.215 1.5 14.25 1.5ZM10.667 1.5H6.834V5.333H10.667V1.5ZM5.333 1.5H3.25C2.285 1.5 1.5 2.285 1.5 3.25V5.333H5.333V1.5Z" fill="var(--fill-0, #848487)"/>
</svg>
