<svg preserveAspectRatio="none" width="100%" height="100%" overflow="visible" style="display: block;" viewBox="0 0 13.807 18.477" fill="none" xmlns="http://www.w3.org/2000/svg">
<path id="Vector" fill-rule="evenodd" clip-rule="evenodd" d="M13.057 16.977C13.471 16.977 13.807 17.313 13.807 17.727C13.807 18.141 13.471 18.477 13.057 18.477H0.75C0.336 18.477 0 18.141 0 17.727C0 17.313 0.336 16.977 0.75 16.977H13.057ZM6.9126 0C7.3266 0 7.6626 0.336 7.6626 0.75V12.811L11.5206 8.787C11.8066 8.487 12.2816 8.477 12.5816 8.764C12.8806 9.05 12.8896 9.525 12.6036 9.825L8.0646 14.56C7.7636 14.874 7.3396 15.055 6.9036 15.055C6.4676 15.055 6.0446 14.874 5.7426 14.56L1.2036 9.825C0.9176 9.525 0.9276 9.05 1.2256 8.764C1.5256 8.477 1.9996 8.487 2.2866 8.787L6.1626 12.83V0.75C6.1626 0.336 6.4986 0 6.9126 0Z" fill="var(--fill-0, #848487)"/>
</svg>
