<svg preserveAspectRatio="none" width="100%" height="100%" overflow="visible" style="display: block;" viewBox="0 0 17.292 17.2208" fill="none" xmlns="http://www.w3.org/2000/svg">
<path id="Vector" fill-rule="evenodd" clip-rule="evenodd" d="M9.767 1.15575L15.374 5.83175C16.114 6.44875 16.542 7.36375 16.542 8.32675V13.9707C16.542 15.3517 15.423 16.4707 14.042 16.4707L11.518 16.47L11.5185 10.39C11.5185 9.61075 10.9232 8.96965 10.1629 8.89695L10.0185 8.89005H7.2725C6.4445 8.89005 5.7725 9.56205 5.7725 10.39V16.27L11.489 16.47L3.25 16.4707C1.869 16.4707 0.75 15.3517 0.75 13.9707V8.32675C0.75 7.36375 1.178 6.44875 1.918 5.83175L7.525 1.15575C8.174 0.61475 9.117 0.61475 9.767 1.15575Z" stroke="var(--stroke-0, #848487)" stroke-width="1.5" stroke-linecap="round" stroke-linejoin="round"/>
</svg>
